<mxfile host="app.diagrams.net" agent="Mozilla/5.0 (Windows NT 10.0; Win64; x64) AppleWebKit/537.36 (KHTML, like Gecko) Chrome/129.0.0.0 Safari/537.36" version="24.7.17">
  <diagram name="Seite-1" id="rICtBro_JCOo9i1cH8Zr">
    <mxGraphModel dx="1434" dy="738" grid="1" gridSize="10" guides="1" tooltips="1" connect="1" arrows="1" fold="1" page="1" pageScale="1" pageWidth="827" pageHeight="1169" math="0" shadow="0">
      <root>
        <mxCell id="0" />
        <mxCell id="1" parent="0" />
        <mxCell id="qiA87WzfySn1nLuCQrY5-3" value="" style="edgeStyle=orthogonalEdgeStyle;rounded=0;orthogonalLoop=1;jettySize=auto;html=1;" parent="1" source="qiA87WzfySn1nLuCQrY5-1" target="qiA87WzfySn1nLuCQrY5-2" edge="1">
          <mxGeometry relative="1" as="geometry" />
        </mxCell>
        <mxCell id="qiA87WzfySn1nLuCQrY5-1" value="" style="ellipse;whiteSpace=wrap;html=1;aspect=fixed;strokeColor=#000000;" parent="1" vertex="1">
          <mxGeometry x="140" y="409.89" width="80" height="80" as="geometry" />
        </mxCell>
        <mxCell id="qiA87WzfySn1nLuCQrY5-5" value="" style="edgeStyle=orthogonalEdgeStyle;rounded=0;orthogonalLoop=1;jettySize=auto;html=1;" parent="1" source="qiA87WzfySn1nLuCQrY5-2" target="qiA87WzfySn1nLuCQrY5-4" edge="1">
          <mxGeometry relative="1" as="geometry" />
        </mxCell>
        <mxCell id="qiA87WzfySn1nLuCQrY5-2" value="Initialise GPIO pins" style="rounded=1;whiteSpace=wrap;html=1;strokeColor=#000000;" parent="1" vertex="1">
          <mxGeometry x="120" y="639.89" width="120" height="60" as="geometry" />
        </mxCell>
        <mxCell id="qiA87WzfySn1nLuCQrY5-9" value="" style="edgeStyle=orthogonalEdgeStyle;rounded=0;orthogonalLoop=1;jettySize=auto;html=1;" parent="1" source="qiA87WzfySn1nLuCQrY5-4" target="qiA87WzfySn1nLuCQrY5-8" edge="1">
          <mxGeometry relative="1" as="geometry" />
        </mxCell>
        <mxCell id="qiA87WzfySn1nLuCQrY5-4" value="Read Shock sensor" style="rounded=1;whiteSpace=wrap;html=1;strokeColor=#000000;" parent="1" vertex="1">
          <mxGeometry x="320" y="639.89" width="120" height="60" as="geometry" />
        </mxCell>
        <mxCell id="qiA87WzfySn1nLuCQrY5-17" value="" style="edgeStyle=orthogonalEdgeStyle;rounded=0;orthogonalLoop=1;jettySize=auto;html=1;" parent="1" source="qiA87WzfySn1nLuCQrY5-8" target="qiA87WzfySn1nLuCQrY5-16" edge="1">
          <mxGeometry relative="1" as="geometry" />
        </mxCell>
        <mxCell id="qiA87WzfySn1nLuCQrY5-25" style="edgeStyle=orthogonalEdgeStyle;rounded=0;orthogonalLoop=1;jettySize=auto;html=1;exitX=1;exitY=0.5;exitDx=0;exitDy=0;entryX=0;entryY=0.5;entryDx=0;entryDy=0;" parent="1" source="qiA87WzfySn1nLuCQrY5-8" target="qiA87WzfySn1nLuCQrY5-23" edge="1">
          <mxGeometry relative="1" as="geometry" />
        </mxCell>
        <mxCell id="qiA87WzfySn1nLuCQrY5-8" value="" style="rhombus;whiteSpace=wrap;html=1;strokeColor=#000000;rounded=1;" parent="1" vertex="1">
          <mxGeometry x="540" y="629.89" width="80" height="80" as="geometry" />
        </mxCell>
        <mxCell id="qiA87WzfySn1nLuCQrY5-19" value="" style="edgeStyle=orthogonalEdgeStyle;rounded=0;orthogonalLoop=1;jettySize=auto;html=1;" parent="1" source="qiA87WzfySn1nLuCQrY5-16" target="qiA87WzfySn1nLuCQrY5-18" edge="1">
          <mxGeometry relative="1" as="geometry" />
        </mxCell>
        <mxCell id="qiA87WzfySn1nLuCQrY5-21" value="" style="edgeStyle=orthogonalEdgeStyle;rounded=0;orthogonalLoop=1;jettySize=auto;html=1;" parent="1" source="qiA87WzfySn1nLuCQrY5-16" target="qiA87WzfySn1nLuCQrY5-20" edge="1">
          <mxGeometry relative="1" as="geometry" />
        </mxCell>
        <mxCell id="qiA87WzfySn1nLuCQrY5-16" value="" style="rhombus;whiteSpace=wrap;html=1;strokeColor=#000000;rounded=1;" parent="1" vertex="1">
          <mxGeometry x="540" y="469.89" width="80" height="80" as="geometry" />
        </mxCell>
        <mxCell id="qiA87WzfySn1nLuCQrY5-22" style="edgeStyle=orthogonalEdgeStyle;rounded=0;orthogonalLoop=1;jettySize=auto;html=1;exitX=1;exitY=0.5;exitDx=0;exitDy=0;entryX=0.5;entryY=0;entryDx=0;entryDy=0;" parent="1" source="qiA87WzfySn1nLuCQrY5-18" target="qiA87WzfySn1nLuCQrY5-20" edge="1">
          <mxGeometry relative="1" as="geometry" />
        </mxCell>
        <mxCell id="qiA87WzfySn1nLuCQrY5-18" value="Start shock sensor reset timer" style="whiteSpace=wrap;html=1;strokeColor=#000000;rounded=1;" parent="1" vertex="1">
          <mxGeometry x="520" y="319.89" width="120" height="60" as="geometry" />
        </mxCell>
        <mxCell id="qiA87WzfySn1nLuCQrY5-24" value="" style="edgeStyle=orthogonalEdgeStyle;rounded=0;orthogonalLoop=1;jettySize=auto;html=1;exitX=1;exitY=0.5;exitDx=0;exitDy=0;" parent="1" source="qiA87WzfySn1nLuCQrY5-20" target="qiA87WzfySn1nLuCQrY5-23" edge="1">
          <mxGeometry relative="1" as="geometry" />
        </mxCell>
        <mxCell id="qiA87WzfySn1nLuCQrY5-20" value="Increase shock intensity" style="whiteSpace=wrap;html=1;strokeColor=#000000;rounded=1;" parent="1" vertex="1">
          <mxGeometry x="720" y="479.89" width="120" height="60" as="geometry" />
        </mxCell>
        <mxCell id="qiA87WzfySn1nLuCQrY5-27" value="" style="edgeStyle=orthogonalEdgeStyle;rounded=0;orthogonalLoop=1;jettySize=auto;html=1;" parent="1" source="qiA87WzfySn1nLuCQrY5-23" target="qiA87WzfySn1nLuCQrY5-26" edge="1">
          <mxGeometry relative="1" as="geometry" />
        </mxCell>
        <mxCell id="qiA87WzfySn1nLuCQrY5-23" value="Check shock timer" style="whiteSpace=wrap;html=1;strokeColor=#000000;rounded=1;" parent="1" vertex="1">
          <mxGeometry x="820" y="639.89" width="120" height="60" as="geometry" />
        </mxCell>
        <mxCell id="qiA87WzfySn1nLuCQrY5-29" value="" style="edgeStyle=orthogonalEdgeStyle;rounded=0;orthogonalLoop=1;jettySize=auto;html=1;" parent="1" source="qiA87WzfySn1nLuCQrY5-26" target="qiA87WzfySn1nLuCQrY5-28" edge="1">
          <mxGeometry relative="1" as="geometry" />
        </mxCell>
        <mxCell id="qiA87WzfySn1nLuCQrY5-31" value="" style="edgeStyle=orthogonalEdgeStyle;rounded=0;orthogonalLoop=1;jettySize=auto;html=1;" parent="1" source="qiA87WzfySn1nLuCQrY5-26" target="qiA87WzfySn1nLuCQrY5-30" edge="1">
          <mxGeometry relative="1" as="geometry" />
        </mxCell>
        <mxCell id="qiA87WzfySn1nLuCQrY5-26" value="" style="rhombus;whiteSpace=wrap;html=1;strokeColor=#000000;rounded=1;" parent="1" vertex="1">
          <mxGeometry x="1010" y="629.89" width="80" height="80" as="geometry" />
        </mxCell>
        <mxCell id="qiA87WzfySn1nLuCQrY5-32" style="edgeStyle=orthogonalEdgeStyle;rounded=0;orthogonalLoop=1;jettySize=auto;html=1;exitX=1;exitY=0.5;exitDx=0;exitDy=0;entryX=0.5;entryY=0;entryDx=0;entryDy=0;" parent="1" source="qiA87WzfySn1nLuCQrY5-28" target="qiA87WzfySn1nLuCQrY5-30" edge="1">
          <mxGeometry relative="1" as="geometry" />
        </mxCell>
        <mxCell id="qiA87WzfySn1nLuCQrY5-28" value="Reset shock timer and shock intensity" style="whiteSpace=wrap;html=1;strokeColor=#000000;rounded=1;" parent="1" vertex="1">
          <mxGeometry x="990" y="479.89" width="120" height="60" as="geometry" />
        </mxCell>
        <mxCell id="qiA87WzfySn1nLuCQrY5-34" value="" style="edgeStyle=orthogonalEdgeStyle;rounded=0;orthogonalLoop=1;jettySize=auto;html=1;" parent="1" source="qiA87WzfySn1nLuCQrY5-30" target="qiA87WzfySn1nLuCQrY5-33" edge="1">
          <mxGeometry relative="1" as="geometry" />
        </mxCell>
        <mxCell id="qiA87WzfySn1nLuCQrY5-30" value="Check shock intensity" style="whiteSpace=wrap;html=1;strokeColor=#000000;rounded=1;" parent="1" vertex="1">
          <mxGeometry x="1230" y="639.89" width="120" height="60" as="geometry" />
        </mxCell>
        <mxCell id="qiA87WzfySn1nLuCQrY5-36" value="" style="edgeStyle=orthogonalEdgeStyle;rounded=0;orthogonalLoop=1;jettySize=auto;html=1;" parent="1" source="qiA87WzfySn1nLuCQrY5-33" target="qiA87WzfySn1nLuCQrY5-35" edge="1">
          <mxGeometry relative="1" as="geometry" />
        </mxCell>
        <mxCell id="qiA87WzfySn1nLuCQrY5-38" value="" style="edgeStyle=orthogonalEdgeStyle;rounded=0;orthogonalLoop=1;jettySize=auto;html=1;" parent="1" source="qiA87WzfySn1nLuCQrY5-33" target="qiA87WzfySn1nLuCQrY5-37" edge="1">
          <mxGeometry relative="1" as="geometry" />
        </mxCell>
        <mxCell id="qiA87WzfySn1nLuCQrY5-33" value="" style="rhombus;whiteSpace=wrap;html=1;strokeColor=#000000;rounded=1;" parent="1" vertex="1">
          <mxGeometry x="1380" y="629.89" width="80" height="80" as="geometry" />
        </mxCell>
        <mxCell id="qiA87WzfySn1nLuCQrY5-39" style="edgeStyle=orthogonalEdgeStyle;rounded=0;orthogonalLoop=1;jettySize=auto;html=1;exitX=1;exitY=0.5;exitDx=0;exitDy=0;entryX=0.5;entryY=0;entryDx=0;entryDy=0;" parent="1" source="qiA87WzfySn1nLuCQrY5-35" target="qiA87WzfySn1nLuCQrY5-37" edge="1">
          <mxGeometry relative="1" as="geometry" />
        </mxCell>
        <mxCell id="qiA87WzfySn1nLuCQrY5-35" value="Start alarm timer" style="whiteSpace=wrap;html=1;strokeColor=#000000;rounded=1;" parent="1" vertex="1">
          <mxGeometry x="1360" y="479.89" width="120" height="60" as="geometry" />
        </mxCell>
        <mxCell id="qiA87WzfySn1nLuCQrY5-41" value="" style="edgeStyle=orthogonalEdgeStyle;rounded=0;orthogonalLoop=1;jettySize=auto;html=1;" parent="1" source="qiA87WzfySn1nLuCQrY5-37" target="qiA87WzfySn1nLuCQrY5-40" edge="1">
          <mxGeometry relative="1" as="geometry" />
        </mxCell>
        <mxCell id="qiA87WzfySn1nLuCQrY5-37" value="Check alarm status and button status" style="whiteSpace=wrap;html=1;strokeColor=#000000;rounded=1;" parent="1" vertex="1">
          <mxGeometry x="1580" y="639.89" width="120" height="60" as="geometry" />
        </mxCell>
        <mxCell id="qiA87WzfySn1nLuCQrY5-43" value="" style="edgeStyle=orthogonalEdgeStyle;rounded=0;orthogonalLoop=1;jettySize=auto;html=1;" parent="1" source="qiA87WzfySn1nLuCQrY5-40" target="qiA87WzfySn1nLuCQrY5-42" edge="1">
          <mxGeometry relative="1" as="geometry" />
        </mxCell>
        <mxCell id="qiA87WzfySn1nLuCQrY5-45" value="" style="edgeStyle=orthogonalEdgeStyle;rounded=0;orthogonalLoop=1;jettySize=auto;html=1;" parent="1" source="qiA87WzfySn1nLuCQrY5-40" target="qiA87WzfySn1nLuCQrY5-44" edge="1">
          <mxGeometry relative="1" as="geometry" />
        </mxCell>
        <mxCell id="qiA87WzfySn1nLuCQrY5-51" style="edgeStyle=orthogonalEdgeStyle;rounded=0;orthogonalLoop=1;jettySize=auto;html=1;exitX=0.5;exitY=1;exitDx=0;exitDy=0;entryX=0.75;entryY=1;entryDx=0;entryDy=0;" parent="1" source="qiA87WzfySn1nLuCQrY5-40" target="qiA87WzfySn1nLuCQrY5-4" edge="1">
          <mxGeometry relative="1" as="geometry">
            <mxPoint x="380" y="909.89" as="targetPoint" />
            <Array as="points">
              <mxPoint x="1840" y="809.89" />
              <mxPoint x="410" y="809.89" />
            </Array>
          </mxGeometry>
        </mxCell>
        <mxCell id="qiA87WzfySn1nLuCQrY5-40" value="" style="rhombus;whiteSpace=wrap;html=1;strokeColor=#000000;rounded=1;" parent="1" vertex="1">
          <mxGeometry x="1800" y="629.89" width="80" height="80" as="geometry" />
        </mxCell>
        <mxCell id="qiA87WzfySn1nLuCQrY5-52" style="edgeStyle=orthogonalEdgeStyle;rounded=0;orthogonalLoop=1;jettySize=auto;html=1;exitX=0.5;exitY=0;exitDx=0;exitDy=0;entryX=0.75;entryY=0;entryDx=0;entryDy=0;" parent="1" source="qiA87WzfySn1nLuCQrY5-42" target="qiA87WzfySn1nLuCQrY5-4" edge="1">
          <mxGeometry relative="1" as="geometry">
            <mxPoint x="310" y="-95.11000000000001" as="targetPoint" />
            <Array as="points">
              <mxPoint x="1840" y="289.89" />
              <mxPoint x="410" y="289.89" />
            </Array>
          </mxGeometry>
        </mxCell>
        <mxCell id="qiA87WzfySn1nLuCQrY5-42" value="Cancel Alarm" style="whiteSpace=wrap;html=1;strokeColor=#000000;rounded=1;" parent="1" vertex="1">
          <mxGeometry x="1780" y="479.89" width="120" height="60" as="geometry" />
        </mxCell>
        <mxCell id="qiA87WzfySn1nLuCQrY5-60" value="" style="edgeStyle=orthogonalEdgeStyle;rounded=0;orthogonalLoop=1;jettySize=auto;html=1;" parent="1" source="qiA87WzfySn1nLuCQrY5-44" target="qiA87WzfySn1nLuCQrY5-59" edge="1">
          <mxGeometry relative="1" as="geometry" />
        </mxCell>
        <mxCell id="qiA87WzfySn1nLuCQrY5-44" value="Check alarm timer" style="whiteSpace=wrap;html=1;strokeColor=#000000;rounded=1;" parent="1" vertex="1">
          <mxGeometry x="2000" y="639.89" width="120" height="60" as="geometry" />
        </mxCell>
        <mxCell id="qiA87WzfySn1nLuCQrY5-46" value="Button is pressed&lt;div&gt;while alarm is active&lt;/div&gt;" style="text;html=1;align=center;verticalAlign=middle;resizable=0;points=[];autosize=1;strokeColor=none;fillColor=none;" parent="1" vertex="1">
          <mxGeometry x="1840" y="569.89" width="130" height="40" as="geometry" />
        </mxCell>
        <mxCell id="qiA87WzfySn1nLuCQrY5-47" value="Alarm is inactive" style="text;html=1;align=center;verticalAlign=middle;resizable=0;points=[];autosize=1;strokeColor=none;fillColor=none;" parent="1" vertex="1">
          <mxGeometry x="1850" y="729.89" width="110" height="30" as="geometry" />
        </mxCell>
        <mxCell id="qiA87WzfySn1nLuCQrY5-49" value="Button is not pressed&lt;div&gt;while alarm is active&lt;/div&gt;" style="text;html=1;align=center;verticalAlign=middle;resizable=0;points=[];autosize=1;strokeColor=none;fillColor=none;" parent="1" vertex="1">
          <mxGeometry x="1860" y="669.89" width="140" height="40" as="geometry" />
        </mxCell>
        <mxCell id="qiA87WzfySn1nLuCQrY5-55" style="edgeStyle=orthogonalEdgeStyle;rounded=0;orthogonalLoop=1;jettySize=auto;html=1;exitX=0.5;exitY=1;exitDx=0;exitDy=0;entryX=0.25;entryY=1;entryDx=0;entryDy=0;" parent="1" source="qiA87WzfySn1nLuCQrY5-53" target="qiA87WzfySn1nLuCQrY5-4" edge="1">
          <mxGeometry relative="1" as="geometry" />
        </mxCell>
        <mxCell id="qiA87WzfySn1nLuCQrY5-53" value="Make the led blink" style="whiteSpace=wrap;html=1;strokeColor=#000000;rounded=1;" parent="1" vertex="1">
          <mxGeometry x="2200" y="779.89" width="120" height="60" as="geometry" />
        </mxCell>
        <mxCell id="qiA87WzfySn1nLuCQrY5-56" value="Alarm timer has not run out" style="text;html=1;align=center;verticalAlign=middle;resizable=0;points=[];autosize=1;strokeColor=none;fillColor=none;" parent="1" vertex="1">
          <mxGeometry x="2260" y="729.89" width="170" height="30" as="geometry" />
        </mxCell>
        <mxCell id="qiA87WzfySn1nLuCQrY5-61" style="edgeStyle=orthogonalEdgeStyle;rounded=0;orthogonalLoop=1;jettySize=auto;html=1;exitX=0.5;exitY=1;exitDx=0;exitDy=0;" parent="1" source="qiA87WzfySn1nLuCQrY5-59" target="qiA87WzfySn1nLuCQrY5-53" edge="1">
          <mxGeometry relative="1" as="geometry" />
        </mxCell>
        <mxCell id="qiA87WzfySn1nLuCQrY5-63" value="" style="edgeStyle=orthogonalEdgeStyle;rounded=0;orthogonalLoop=1;jettySize=auto;html=1;" parent="1" source="qiA87WzfySn1nLuCQrY5-59" target="qiA87WzfySn1nLuCQrY5-62" edge="1">
          <mxGeometry relative="1" as="geometry" />
        </mxCell>
        <mxCell id="qiA87WzfySn1nLuCQrY5-59" value="" style="rhombus;whiteSpace=wrap;html=1;strokeColor=#000000;rounded=1;" parent="1" vertex="1">
          <mxGeometry x="2220" y="629.89" width="80" height="80" as="geometry" />
        </mxCell>
        <mxCell id="qiA87WzfySn1nLuCQrY5-65" style="edgeStyle=orthogonalEdgeStyle;rounded=0;orthogonalLoop=1;jettySize=auto;html=1;exitX=0.5;exitY=0;exitDx=0;exitDy=0;entryX=0.25;entryY=0;entryDx=0;entryDy=0;" parent="1" source="qiA87WzfySn1nLuCQrY5-62" target="qiA87WzfySn1nLuCQrY5-4" edge="1">
          <mxGeometry relative="1" as="geometry">
            <Array as="points">
              <mxPoint x="2260" y="239.89" />
              <mxPoint x="350" y="239.89" />
            </Array>
          </mxGeometry>
        </mxCell>
        <mxCell id="qiA87WzfySn1nLuCQrY5-62" value="Send Message" style="whiteSpace=wrap;html=1;strokeColor=#000000;rounded=1;" parent="1" vertex="1">
          <mxGeometry x="2200" y="479.89" width="120" height="60" as="geometry" />
        </mxCell>
        <mxCell id="qiA87WzfySn1nLuCQrY5-64" value="Alarm timer ran out" style="text;html=1;align=center;verticalAlign=middle;resizable=0;points=[];autosize=1;strokeColor=none;fillColor=none;" parent="1" vertex="1">
          <mxGeometry x="2260" y="574.89" width="130" height="30" as="geometry" />
        </mxCell>
        <mxCell id="qiA87WzfySn1nLuCQrY5-66" value="no shock detected" style="text;html=1;align=center;verticalAlign=middle;resizable=0;points=[];autosize=1;strokeColor=none;fillColor=none;" parent="1" vertex="1">
          <mxGeometry x="650" y="669.89" width="120" height="30" as="geometry" />
        </mxCell>
        <mxCell id="qiA87WzfySn1nLuCQrY5-67" value="Shock detected" style="text;html=1;align=center;verticalAlign=middle;resizable=0;points=[];autosize=1;strokeColor=none;fillColor=none;" parent="1" vertex="1">
          <mxGeometry x="580" y="574.89" width="110" height="30" as="geometry" />
        </mxCell>
        <mxCell id="qiA87WzfySn1nLuCQrY5-68" value="Shock timer active" style="text;html=1;align=center;verticalAlign=middle;resizable=0;points=[];autosize=1;strokeColor=none;fillColor=none;" parent="1" vertex="1">
          <mxGeometry x="600" y="509.89" width="120" height="30" as="geometry" />
        </mxCell>
        <mxCell id="qiA87WzfySn1nLuCQrY5-69" value="Shock Timer inactive" style="text;html=1;align=center;verticalAlign=middle;resizable=0;points=[];autosize=1;strokeColor=none;fillColor=none;" parent="1" vertex="1">
          <mxGeometry x="580" y="409.89" width="130" height="30" as="geometry" />
        </mxCell>
        <mxCell id="qiA87WzfySn1nLuCQrY5-70" value="Shock timer ran out" style="text;html=1;align=center;verticalAlign=middle;resizable=0;points=[];autosize=1;strokeColor=none;fillColor=none;" parent="1" vertex="1">
          <mxGeometry x="1050" y="574.89" width="130" height="30" as="geometry" />
        </mxCell>
        <mxCell id="qiA87WzfySn1nLuCQrY5-72" value="Shock timer has not run&lt;div&gt;out or is inactive&lt;/div&gt;" style="text;html=1;align=center;verticalAlign=middle;resizable=0;points=[];autosize=1;strokeColor=none;fillColor=none;" parent="1" vertex="1">
          <mxGeometry x="1080" y="669.89" width="150" height="40" as="geometry" />
        </mxCell>
        <mxCell id="qiA87WzfySn1nLuCQrY5-73" value="Alarm timer inactive" style="text;html=1;align=center;verticalAlign=middle;resizable=0;points=[];autosize=1;strokeColor=none;fillColor=none;" parent="1" vertex="1">
          <mxGeometry x="1420" y="574.89" width="130" height="30" as="geometry" />
        </mxCell>
        <mxCell id="qiA87WzfySn1nLuCQrY5-74" value="Alarm timer active&lt;div&gt;or no shock detected&lt;/div&gt;" style="text;html=1;align=center;verticalAlign=middle;resizable=0;points=[];autosize=1;strokeColor=none;fillColor=none;" parent="1" vertex="1">
          <mxGeometry x="1450" y="669.89" width="130" height="40" as="geometry" />
        </mxCell>
      </root>
    </mxGraphModel>
  </diagram>
</mxfile>
